<svg xmlns="http://www.w3.org/2000/svg"  viewBox="0 0 64 64" width="48px" height="48px"><path d="M 32 8 C 31.08875 8 30.178047 8.3091875 29.435547 8.9296875 L 8.8007812 26.171875 C 8.0357812 26.810875 7.7634844 27.925203 8.2714844 28.783203 C 8.9184844 29.875203 10.35025 30.088547 11.28125 29.310547 L 12 28.710938 L 12 47 C 12 49.761 14.239 52 17 52 L 47 52 C 49.761 52 52 49.761 52 47 L 52 28.712891 L 52.71875 29.3125 C 53.09275 29.6255 53.546047 29.777344 53.998047 29.777344 C 54.693047 29.777344 55.382672 29.416656 55.763672 28.722656 C 56.228672 27.874656 55.954891 26.803594 55.212891 26.183594 L 34.564453 8.9296875 C 33.821953 8.3091875 32.91125 8 32 8 z M 32 12.152344 C 32.11475 12.152344 32.228766 12.191531 32.322266 12.269531 L 48 25.369141 L 48 46 C 48 47.105 47.105 48 46 48 L 18 48 C 16.895 48 16 47.105 16 46 L 16 25.367188 L 31.677734 12.269531 C 31.771234 12.191531 31.88525 12.152344 32 12.152344 z M 32 22 C 31.448 22 31 22.448 31 23 L 31 24.351562 C 28.135026 24.6134 25.376953 26.200326 25.376953 29.541016 C 25.376953 33.711282 29.456217 34.388101 31 34.640625 L 31 39.521484 C 29.766416 39.327205 28.59951 38.683554 28.283203 37.259766 C 28.010203 35.390766 24.849703 35.589719 24.970703 37.261719 C 24.970703 37.898046 25.382921 41.978467 31 42.283203 L 31 44 C 31 44.552 31.448 45 32 45 C 32.552 45 33 44.552 33 44 L 33 42.220703 C 35.610252 41.893306 38.529297 40.538934 38.529297 36.880859 C 38.529297 32.900859 34.840141 32.270187 33.869141 31.992188 C 33.612153 31.918565 33.295922 31.85969 33 31.796875 L 33 27.152344 C 34.575295 27.589928 34.951116 28.843959 35.013672 29.185547 C 35.234672 30.966547 38.348672 30.708547 38.263672 29.185547 C 38.247957 28.189034 37.411999 24.865098 33 24.367188 L 33 23 C 33 22.448 32.552 22 32 22 z M 31 27.056641 L 31 31.328125 C 29.801642 30.987689 28.804688 30.459003 28.804688 29.3125 C 28.804688 28.664144 29.160271 27.359141 31 27.056641 z M 33 35.101562 C 34.631178 35.607386 35.113281 36.256134 35.113281 37.195312 C 35.113281 37.601537 34.993515 39.065887 33 39.478516 L 33 35.101562 z"/></svg>