<?xml version="1.0" standalone="no"?>
<!DOCTYPE svg PUBLIC "-//W3C//DTD SVG 20010904//EN"
 "http://www.w3.org/TR/2001/REC-SVG-20010904/DTD/svg10.dtd">
<svg version="1.0" xmlns="http://www.w3.org/2000/svg"
 width="500.000000pt" height="500.000000pt" viewBox="0 0 500.000000 500.000000"
 preserveAspectRatio="xMidYMid meet">

<g transform="translate(0.000000,500.000000) scale(0.100000,-0.100000)"
fill="#000000" stroke="none">
<path d="M2463 4090 c-22 -13 -42 -41 -66 -92 -18 -40 -298 -629 -620 -1310
-323 -680 -587 -1248 -587 -1263 0 -83 93 -147 172 -116 13 5 279 217 593 470
313 254 572 461 575 461 3 0 262 -208 575 -461 314 -254 580 -465 593 -470 61
-24 133 7 158 68 26 60 100 -108 -636 1443 -205 432 -415 875 -467 985 -52
110 -101 215 -110 232 -31 67 -117 92 -180 53z m261 -811 c162 -341 187 -402
175 -413 -8 -7 -94 -77 -191 -155 -159 -129 -179 -141 -195 -129 -101 73 -363
295 -361 305 5 21 373 793 378 793 3 0 90 -181 194 -401z m-546 -751 c76 -62
140 -117 141 -121 2 -8 -639 -531 -644 -525 -2 3 97 212 311 661 26 53 48 97
50 97 2 0 66 -51 142 -112z m1029 -268 c100 -209 179 -380 177 -380 -8 0 -642
515 -644 524 -1 7 268 234 281 235 3 1 87 -170 186 -379z"/>
</g>
</svg>
